<svg xmlns="http://www.w3.org/2000/svg" xmlns:xlink="http://www.w3.org/1999/xlink" version="1.1" width="761px" viewBox="-0.5 -0.5 761 241" content="&lt;mxfile modified=&quot;2024-06-11T20:40:18.173Z&quot; host=&quot;app.diagrams.net&quot; agent=&quot;Mozilla/5.0 (Windows NT 10.0; Win64; x64) AppleWebKit/537.36 (KHTML, like Gecko) Chrome/125.0.0.0 Safari/537.36&quot; etag=&quot;z01KXMEoAbva2Enn8BXR&quot; version=&quot;24.5.3&quot; type=&quot;device&quot;&gt;&#10;  &lt;diagram id=&quot;Ht1M8jgEwFfnCIfOTk4-&quot; name=&quot;Page-1&quot;&gt;&#10;    &lt;mxGraphModel dx=&quot;2074&quot; dy=&quot;772&quot; grid=&quot;1&quot; gridSize=&quot;10&quot; guides=&quot;1&quot; tooltips=&quot;1&quot; connect=&quot;1&quot; arrows=&quot;1&quot; fold=&quot;1&quot; page=&quot;1&quot; pageScale=&quot;1&quot; pageWidth=&quot;827&quot; pageHeight=&quot;1169&quot; math=&quot;0&quot; shadow=&quot;0&quot;&gt;&#10;      &lt;root&gt;&#10;        &lt;mxCell id=&quot;0&quot; /&gt;&#10;        &lt;mxCell id=&quot;1&quot; parent=&quot;0&quot; /&gt;&#10;        &lt;mxCell id=&quot;Zbdon10NIlDLZtUd2jS0-11&quot; value=&quot;&quot; style=&quot;sketch=0;points=[[0,0,0],[0.25,0,0],[0.5,0,0],[0.75,0,0],[1,0,0],[0,1,0],[0.25,1,0],[0.5,1,0],[0.75,1,0],[1,1,0],[0,0.25,0],[0,0.5,0],[0,0.75,0],[1,0.25,0],[1,0.5,0],[1,0.75,0]];outlineConnect=0;fontColor=#232F3E;fillColor=#ED7100;strokeColor=#ffffff;dashed=0;verticalLabelPosition=bottom;verticalAlign=top;align=center;html=1;fontSize=12;fontStyle=0;aspect=fixed;shape=mxgraph.aws4.resourceIcon;resIcon=mxgraph.aws4.eks;&quot; vertex=&quot;1&quot; parent=&quot;1&quot;&gt;&#10;          &lt;mxGeometry x=&quot;840&quot; y=&quot;200&quot; width=&quot;240&quot; height=&quot;240&quot; as=&quot;geometry&quot; /&gt;&#10;        &lt;/mxCell&gt;&#10;        &lt;mxCell id=&quot;Zbdon10NIlDLZtUd2jS0-12&quot; value=&quot;&quot; style=&quot;sketch=0;points=[[0,0,0],[0.25,0,0],[0.5,0,0],[0.75,0,0],[1,0,0],[0,1,0],[0.25,1,0],[0.5,1,0],[0.75,1,0],[1,1,0],[0,0.25,0],[0,0.5,0],[0,0.75,0],[1,0.25,0],[1,0.5,0],[1,0.75,0]];outlineConnect=0;fontColor=#232F3E;fillColor=#E7157B;strokeColor=#ffffff;dashed=0;verticalLabelPosition=bottom;verticalAlign=top;align=center;html=1;fontSize=12;fontStyle=0;aspect=fixed;shape=mxgraph.aws4.resourceIcon;resIcon=mxgraph.aws4.sqs;&quot; vertex=&quot;1&quot; parent=&quot;1&quot;&gt;&#10;          &lt;mxGeometry x=&quot;320&quot; y=&quot;200&quot; width=&quot;240&quot; height=&quot;240&quot; as=&quot;geometry&quot; /&gt;&#10;        &lt;/mxCell&gt;&#10;        &lt;mxCell id=&quot;Zbdon10NIlDLZtUd2jS0-13&quot; value=&quot;&quot; style=&quot;edgeStyle=orthogonalEdgeStyle;html=1;endArrow=block;elbow=vertical;startArrow=none;endFill=1;strokeColor=#1e2125;rounded=0;fontSize=20;curved=0;strokeWidth=5;&quot; edge=&quot;1&quot; parent=&quot;1&quot;&gt;&#10;          &lt;mxGeometry width=&quot;100&quot; relative=&quot;1&quot; as=&quot;geometry&quot;&gt;&#10;            &lt;mxPoint x=&quot;590&quot; y=&quot;320&quot; as=&quot;sourcePoint&quot; /&gt;&#10;            &lt;mxPoint x=&quot;810&quot; y=&quot;320&quot; as=&quot;targetPoint&quot; /&gt;&#10;          &lt;/mxGeometry&gt;&#10;        &lt;/mxCell&gt;&#10;      &lt;/root&gt;&#10;    &lt;/mxGraphModel&gt;&#10;  &lt;/diagram&gt;&#10;&lt;/mxfile&gt;&#10;" onclick="(function(svg){var src=window.event.target||window.event.srcElement;while (src!=null&amp;&amp;src.nodeName.toLowerCase()!='a'){src=src.parentNode;}if(src==null){if(svg.wnd!=null&amp;&amp;!svg.wnd.closed){svg.wnd.focus();}else{var r=function(evt){if(evt.data=='ready'&amp;&amp;evt.source==svg.wnd){svg.wnd.postMessage(decodeURIComponent(svg.getAttribute('content')),'*');window.removeEventListener('message',r);}};window.addEventListener('message',r);svg.wnd=window.open('https://viewer.diagrams.net/?client=1&amp;page=0&amp;edit=_blank');}}})(this);" style="cursor:pointer;max-width:100%;max-height:241px;"><defs/><g><g><path d="M 520 0 L 760 0 L 760 240 L 520 240 Z" fill="#ed7100" stroke="none" pointer-events="all"/><path d="M 661.35 92.14 L 638.36 118.8 L 663.36 147.96 L 654.03 147.96 L 631.59 121.76 L 631.59 148.69 L 624.85 148.69 L 624.85 91.47 L 631.59 91.47 L 631.59 115.03 L 652.39 92.14 Z M 719.09 146.11 L 692.17 129.95 L 692.17 91.47 C 692.17 90.27 691.54 89.16 690.5 88.56 L 651.78 65.98 L 651.78 33.42 L 719.09 73.2 Z M 724.17 68.38 L 650.13 24.62 C 649.08 24.01 647.8 24 646.74 24.6 C 645.7 25.19 645.05 26.31 645.05 27.52 L 645.05 67.91 C 645.05 69.1 645.68 70.21 646.72 70.82 L 685.44 93.4 L 685.44 131.86 C 685.44 133.04 686.06 134.14 687.07 134.74 L 720.73 154.94 C 721.26 155.26 721.86 155.42 722.46 155.42 C 723.03 155.42 723.6 155.27 724.12 154.98 C 725.18 154.38 725.83 153.26 725.83 152.05 L 725.83 71.27 C 725.83 70.08 725.2 68.98 724.17 68.38 Z M 639.81 208.81 L 560.91 166.86 L 560.91 73.2 L 628.22 33.42 L 628.22 66.06 L 592.76 88.63 C 591.79 89.25 591.2 90.32 591.2 91.47 L 591.2 148.69 C 591.2 149.94 591.9 151.09 593.01 151.67 L 638.29 175.23 C 639.26 175.74 640.42 175.74 641.39 175.23 L 685.32 152.54 L 712.35 168.76 Z M 720.83 165.99 L 687.17 145.8 C 686.17 145.2 684.93 145.16 683.89 145.7 L 639.85 168.45 L 597.93 146.64 L 597.93 93.32 L 633.39 70.75 C 634.36 70.13 634.95 69.06 634.95 67.91 L 634.95 27.52 C 634.95 26.31 634.31 25.19 633.26 24.6 C 632.21 24 630.92 24.01 629.87 24.62 L 555.83 68.38 C 554.8 68.98 554.17 70.08 554.17 71.27 L 554.17 168.88 C 554.17 170.12 554.86 171.27 555.96 171.85 L 638.26 215.61 C 638.76 215.87 639.3 216 639.84 216 C 640.4 216 640.96 215.86 641.47 215.58 L 720.72 171.83 C 721.78 171.24 722.44 170.14 722.46 168.94 C 722.48 167.74 721.86 166.61 720.83 165.99 Z" fill="#ffffff" stroke="none" pointer-events="all"/></g><g><path d="M 0 0 L 240 0 L 240 240 L 0 240 Z" fill="#e7157b" stroke="none" pointer-events="all"/><path d="M 82.04 132.41 L 92.14 122.43 C 92.77 121.8 93.13 120.95 93.13 120.07 C 93.13 119.18 92.78 118.33 92.15 117.7 L 82.05 107.61 L 77.28 112.32 L 81.61 116.66 L 66.2 116.66 L 66.2 123.34 L 81.67 123.34 L 77.29 127.66 Z M 159.12 132.71 L 172.58 122.67 C 173.43 122.04 173.93 121.05 173.93 120 C 173.93 118.94 173.43 117.95 172.58 117.32 L 159.11 107.29 L 155.07 112.64 L 160.46 116.66 L 147 116.66 L 147 123.34 L 160.46 123.34 L 155.07 127.36 Z M 103.88 120 C 103.88 127.1 102.65 133.8 100.35 139.62 C 106.41 137.3 113.24 136.13 120.06 136.13 C 126.89 136.13 133.72 137.3 139.77 139.62 C 137.48 133.8 136.25 127.1 136.25 120 C 136.25 112.9 137.48 106.21 139.77 100.38 C 127.66 105.03 112.47 105.03 100.35 100.38 C 102.65 106.21 103.88 112.9 103.88 120 Z M 87.39 152.47 C 86.73 151.82 86.4 150.96 86.4 150.1 C 86.4 149.25 86.73 148.39 87.39 147.74 C 93.49 141.67 97.15 131.3 97.15 120 C 97.15 108.7 93.49 98.33 87.39 92.26 C 86.73 91.61 86.4 90.75 86.4 89.9 C 86.4 89.04 86.73 88.18 87.39 87.53 C 88.7 86.22 90.83 86.22 92.15 87.53 C 105.19 100.49 134.94 100.49 147.98 87.53 C 149.3 86.22 151.42 86.22 152.74 87.53 C 153.4 88.18 153.73 89.04 153.73 89.9 C 153.73 90.75 153.4 91.61 152.74 92.26 C 146.63 98.33 142.98 108.7 142.98 120 C 142.98 131.3 146.63 141.67 152.74 147.74 C 153.4 148.39 153.73 149.25 153.73 150.1 C 153.73 150.96 153.4 151.82 152.74 152.47 C 152.08 153.12 151.22 153.45 150.36 153.45 C 149.5 153.45 148.64 153.12 147.98 152.47 C 134.94 139.51 105.19 139.51 92.15 152.47 C 90.83 153.78 88.7 153.78 87.39 152.47 Z M 207.47 120.02 C 207.47 116.9 206.25 113.97 204.03 111.76 C 201.74 109.49 198.73 108.35 195.73 108.35 C 192.72 108.35 189.71 109.49 187.42 111.76 C 182.84 116.31 182.84 123.72 187.42 128.27 C 192 132.82 199.45 132.82 204.03 128.27 C 206.25 126.07 207.47 123.14 207.47 120.02 Z M 208.79 133 C 205.19 136.58 200.46 138.37 195.73 138.37 C 190.99 138.37 186.26 136.58 182.66 133 C 175.45 125.84 175.45 114.19 182.66 107.03 C 189.87 99.87 201.59 99.88 208.79 107.03 C 216 114.19 216 125.84 208.79 133 Z M 56.01 120.09 C 56.01 116.98 54.79 114.05 52.57 111.84 C 50.35 109.64 47.4 108.42 44.27 108.42 C 41.13 108.42 38.18 109.64 35.96 111.84 C 33.74 114.05 32.52 116.98 32.52 120.09 C 32.52 123.21 33.74 126.14 35.96 128.35 C 40.4 132.75 48.13 132.75 52.57 128.35 C 54.79 126.14 56.01 123.21 56.01 120.09 Z M 57.33 133.08 C 53.73 136.65 49 138.44 44.27 138.44 C 39.54 138.44 34.81 136.65 31.2 133.08 C 24 125.92 24 114.27 31.2 107.11 C 38.41 99.95 50.13 99.95 57.33 107.11 C 64.54 114.27 64.54 125.92 57.33 133.08 Z M 170.11 169.98 C 156.67 183.34 138.8 190.69 119.79 190.69 C 100.78 190.69 82.91 183.34 69.47 169.98 C 60.26 160.82 55.18 149.88 52.55 142.32 L 46.19 144.51 C 49.05 152.74 54.59 164.65 64.71 174.71 C 79.43 189.33 98.98 197.38 119.79 197.38 C 140.6 197.38 160.16 189.33 174.87 174.71 C 183.37 166.27 190.14 155.54 193.94 144.5 L 187.57 142.33 C 184.1 152.42 177.9 162.24 170.11 169.98 Z M 52.55 97.68 L 46.19 95.49 C 50.26 83.83 56.85 73.11 64.73 65.27 C 79.44 50.67 98.99 42.62 119.79 42.62 C 140.6 42.62 160.15 50.67 174.85 65.27 C 183.15 73.52 190.11 84.53 193.93 95.49 L 187.58 97.68 C 184.07 87.65 177.69 77.56 170.09 70 C 156.66 56.66 138.8 49.31 119.79 49.31 C 100.79 49.31 82.92 56.66 69.49 70 C 62.32 77.14 56.3 86.97 52.55 97.68 Z" fill="#ffffff" stroke="none" pointer-events="all"/></g><g><path d="M 270 120 L 473.41 120" fill="none" stroke="#1e2125" stroke-width="5" stroke-miterlimit="10" pointer-events="stroke"/><path d="M 484.41 120 L 473.41 125.5 L 473.41 114.5 Z" fill="#1e2125" stroke="#1e2125" stroke-width="5" stroke-miterlimit="10" pointer-events="all"/></g></g></svg>
