<?xml version="1.0" encoding="UTF-8"?>
<svg width="394" height="180" version="1.1" viewBox="0 0 104 26" xmlns="http://www.w3.org/2000/svg" xmlns:cc="http://creativecommons.org/ns#" xmlns:dc="http://purl.org/dc/elements/1.1/" xmlns:rdf="http://www.w3.org/1999/02/22-rdf-syntax-ns#">
<title>Pivotal Software logo</title>
<desc>An information technology company based in San Francisco, California, United States</desc>
 <metadata>
  <rdf:RDF>
   <cc:Work rdf:about="">
    <dc:format>image/svg+xml</dc:format>
    <dc:type rdf:resource="http://purl.org/dc/dcmitype/StillImage"/>
    <dc:title/>
   </cc:Work>
  </rdf:RDF>
 </metadata>
 <g transform="translate(77.8 -136)">
  <g transform="translate(.265 -.265)">
   <path d="m-53.7 161h-3.87v-18.6h3.87zm-0.0049-21.3h-3.86v-3.74h3.86v3.74" style="fill:#048371"/>
   <path d="m-31.3 143-5.39 16c-0.927 2.62-2.58 2.96-3.92 2.96-1.99 0-3.18-0.913-3.89-2.96l-4.5-13.3h-1.78v-2.72h4.64l4.63 14.9c0.202 0.636 0.327 1.02 0.889 1.02 0.583 0 0.699-0.387 0.887-1.02l4.73-14.9h3.7" style="fill:#048371"/>
   <path d="m-21.8 159c3 0 4.86-2.27 4.86-4.99v-2.92c0-2.72-1.84-4.99-4.86-4.99-3.17 0-4.85 2.27-4.85 4.99v2.92c0 2.72 1.75 4.99 4.85 4.99m0-15.9c5.01 0 8.51 3.31 8.51 8.04v2.92c0 4.73-3.49 8.04-8.51 8.04-5.01 0-8.51-3.31-8.51-8.04v-2.92c0-4.74 3.5-8.04 8.51-8.04" style="fill:#048371"/>
   <path d="m17.6 143c-1.93-0.496-4.94-0.856-7.17-0.856-5.08 0-8.24 3.21-8.24 8.38v2.04c0 5.16 3.16 8.42 8.24 8.42 0.117 0 1.02 4e-3 1.43-0.0367v-3.12c-0.156 0-1.32 0.0413-1.43 0.0413-2.77 0-4.63-2.13-4.63-5.31v-2.04c0-3.17 1.86-5.31 4.63-5.31 1.25 0 3.14 0.101 3.79 0.239l0.207 0.0448 0.0046 15.5h3.87v-17.3c0-0.331 0-0.458-0.702-0.643" style="fill:#048371"/>
   <path d="m22.1 161h3.87v-25.1h-3.87z" style="fill:#048371"/>
   <path d="m-71 136h-6.79v25h4.03v-21.6h2.36c0.501 4e-3 0.928 0.0247 1.36 0.0328 3.49 0.0674 5.2 1.45 5.2 4.17 0 0.109 0.0071 0.181 0.0071 0.294 0 2.51-1.38 4.18-5.18 4.18-0.364 0-0.738-8e-3 -1.12-5e-3 0.0011 0.96-0.0037 2.74-0.0059 3.37 0.393 0.0189 0.76 0.0353 1.14 0.0353 5.46 0 9.32-2.15 9.32-7.54 0-0.106-0.0056-0.216-0.0056-0.325 0-5.59-4.2-7.69-10.3-7.69" style="fill:#048371"/>
   <path d="m-6.42 139v4h6.31v3h-6.31v10.8c0 1.7 1.08 1.74 2.66 1.74h3.65v3h-4.94c-3.65 0-5.28-1.46-5.28-4.75v-17.3l3.92-0.538" style="fill:#048371"/>
  </g>
 </g>
</svg>
