<?xml version="1.0" encoding="UTF-8"?>
<!-- Do not edit this file with editors other than diagrams.net -->
<!DOCTYPE svg PUBLIC "-//W3C//DTD SVG 1.1//EN" "http://www.w3.org/Graphics/SVG/1.1/DTD/svg11.dtd">
<svg xmlns="http://www.w3.org/2000/svg" xmlns:xlink="http://www.w3.org/1999/xlink" version="1.1" width="641px" height="241px" viewBox="-0.5 -0.5 641 241" content="&lt;mxfile host=&quot;app.diagrams.net&quot; modified=&quot;2023-04-20T05:40:43.433Z&quot; agent=&quot;Mozilla/5.0 (Windows NT 10.0; Win64; x64) AppleWebKit/537.36 (KHTML, like Gecko) Chrome/112.0.0.0 Safari/537.36&quot; etag=&quot;1oCzYkW3J0a-uesMjwoV&quot; version=&quot;21.2.1&quot; type=&quot;device&quot;&gt;&#10;  &lt;diagram name=&quot;Page-1&quot; id=&quot;SzQP5BKGQWK9J800zmyN&quot;&gt;&#10;    &lt;mxGraphModel dx=&quot;2074&quot; dy=&quot;731&quot; grid=&quot;1&quot; gridSize=&quot;10&quot; guides=&quot;1&quot; tooltips=&quot;1&quot; connect=&quot;1&quot; arrows=&quot;1&quot; fold=&quot;1&quot; page=&quot;1&quot; pageScale=&quot;1&quot; pageWidth=&quot;850&quot; pageHeight=&quot;1100&quot; math=&quot;0&quot; shadow=&quot;0&quot;&gt;&#10;      &lt;root&gt;&#10;        &lt;mxCell id=&quot;0&quot; /&gt;&#10;        &lt;mxCell id=&quot;1&quot; parent=&quot;0&quot; /&gt;&#10;        &lt;mxCell id=&quot;fduHD6rN0SOV2O807r0E-4&quot; value=&quot;&quot; style=&quot;sketch=0;points=[[0,0,0],[0.25,0,0],[0.5,0,0],[0.75,0,0],[1,0,0],[0,1,0],[0.25,1,0],[0.5,1,0],[0.75,1,0],[1,1,0],[0,0.25,0],[0,0.5,0],[0,0.75,0],[1,0.25,0],[1,0.5,0],[1,0.75,0]];outlineConnect=0;fontColor=#232F3E;gradientColor=#F78E04;gradientDirection=north;fillColor=#D05C17;strokeColor=#ffffff;dashed=0;verticalLabelPosition=bottom;verticalAlign=top;align=center;html=1;fontSize=12;fontStyle=0;aspect=fixed;shape=mxgraph.aws4.resourceIcon;resIcon=mxgraph.aws4.lambda;&quot; vertex=&quot;1&quot; parent=&quot;1&quot;&gt;&#10;          &lt;mxGeometry x=&quot;520&quot; y=&quot;240&quot; width=&quot;240&quot; height=&quot;240&quot; as=&quot;geometry&quot; /&gt;&#10;        &lt;/mxCell&gt;&#10;        &lt;mxCell id=&quot;fduHD6rN0SOV2O807r0E-7&quot; value=&quot;&quot; style=&quot;outlineConnect=0;dashed=0;verticalLabelPosition=bottom;verticalAlign=top;align=center;html=1;shape=mxgraph.aws3.sqs;fillColor=#D9A741;gradientColor=none;&quot; vertex=&quot;1&quot; parent=&quot;1&quot;&gt;&#10;          &lt;mxGeometry x=&quot;120&quot; y=&quot;240&quot; width=&quot;210&quot; height=&quot;240&quot; as=&quot;geometry&quot; /&gt;&#10;        &lt;/mxCell&gt;&#10;        &lt;mxCell id=&quot;fduHD6rN0SOV2O807r0E-8&quot; value=&quot;&quot; style=&quot;edgeStyle=orthogonalEdgeStyle;html=1;endArrow=block;elbow=vertical;startArrow=none;endFill=1;strokeColor=#282625;rounded=0;strokeWidth=5;&quot; edge=&quot;1&quot; parent=&quot;1&quot;&gt;&#10;          &lt;mxGeometry width=&quot;100&quot; relative=&quot;1&quot; as=&quot;geometry&quot;&gt;&#10;            &lt;mxPoint x=&quot;360&quot; y=&quot;360&quot; as=&quot;sourcePoint&quot; /&gt;&#10;            &lt;mxPoint x=&quot;500&quot; y=&quot;360&quot; as=&quot;targetPoint&quot; /&gt;&#10;          &lt;/mxGeometry&gt;&#10;        &lt;/mxCell&gt;&#10;      &lt;/root&gt;&#10;    &lt;/mxGraphModel&gt;&#10;  &lt;/diagram&gt;&#10;&lt;/mxfile&gt;&#10;"><defs><linearGradient x1="0%" y1="100%" x2="0%" y2="0%" id="mx-gradient-f78e04-1-d05c17-1-s-0"><stop offset="0%" style="stop-color: rgb(208, 92, 23); stop-opacity: 1;"/><stop offset="100%" style="stop-color: rgb(247, 142, 4); stop-opacity: 1;"/></linearGradient></defs><g><path d="M 400 0 L 640 0 L 640 240 L 400 240 Z" fill="url(#mx-gradient-f78e04-1-d05c17-1-s-0)" stroke="none" pointer-events="all"/><path d="M 478.97 209.14 L 436.4 209.14 L 483.48 110.73 L 504.81 154.65 Z M 486.55 101.32 C 485.98 100.14 484.77 99.39 483.46 99.39 L 483.45 99.39 C 482.13 99.39 480.92 100.15 480.36 101.34 L 427.85 211.09 C 427.34 212.16 427.41 213.4 428.05 214.4 C 428.67 215.4 429.77 216 430.95 216 L 481.14 216 C 482.47 216 483.68 215.24 484.25 214.04 L 511.73 156.1 C 512.18 155.16 512.17 154.07 511.72 153.14 Z M 605.79 209.14 L 563.49 209.14 L 495.63 67.1 C 495.06 65.9 493.85 65.14 492.53 65.14 L 464.85 65.14 L 464.88 30.86 L 519.13 30.86 L 586.67 172.9 C 587.24 174.09 588.45 174.86 589.77 174.86 L 605.79 174.86 Z M 609.22 168 L 591.95 168 L 524.41 25.96 C 523.84 24.76 522.63 24 521.3 24 L 461.45 24 C 459.56 24 458.02 25.53 458.01 27.43 L 457.98 68.57 C 457.98 69.48 458.33 70.35 458.98 71 C 459.63 71.64 460.5 72 461.41 72 L 490.36 72 L 558.22 214.05 C 558.79 215.24 559.99 216 561.32 216 L 609.22 216 C 611.12 216 612.66 214.46 612.66 212.57 L 612.66 171.43 C 612.66 169.54 611.12 168 609.22 168 Z" fill="#ffffff" stroke="none" pointer-events="all"/><path d="M 104.98 240 L 0 190.21 L 0 49.83 L 104.98 0 L 210 49.83 L 210 77.79 L 120.7 88.27 L 120.7 91.38 L 210 102.29 L 210 137.75 L 120.7 148.43 L 120.7 151.77 L 210 162.25 L 210 190.17 Z" fill="#d9a741" stroke="none" pointer-events="all"/><path d="M 52.35 144.16 L 27.43 141.28 L 27.43 98.76 L 52.35 95.84 Z M 104.98 150.29 L 66.18 145.63 L 66.18 94.14 L 104.98 89.44 Z M 104.98 240 L 0 190.21 L 0 49.83 L 104.98 0 L 104.98 48.08 L 13.55 73.98 L 13.55 166.02 L 104.98 191.96 Z" fill-opacity="0.3" fill="#000000" stroke="none" pointer-events="all"/><path d="M 120.7 88.27 L 13.55 73.98 L 104.98 48.08 L 210 77.79 Z" fill-opacity="0.5" fill="#000000" stroke="none" pointer-events="all"/><path d="M 120.7 151.77 L 210 162.25 L 104.98 191.96 L 13.55 166.02 Z" fill-opacity="0.3" fill="#ffffff" stroke="none" pointer-events="all"/><path d="M 240 120 L 363.41 120" fill="none" stroke="#282625" stroke-width="5" stroke-miterlimit="10" pointer-events="stroke"/><path d="M 374.41 120 L 363.41 125.5 L 363.41 114.5 Z" fill="#282625" stroke="#282625" stroke-width="5" stroke-miterlimit="10" pointer-events="all"/></g></svg>